<?xml version="1.0" encoding="UTF-8" standalone="no"?>
<!DOCTYPE svg PUBLIC "-//W3C//DTD SVG 1.1//EN"
 "http://www.w3.org/Graphics/SVG/1.1/DTD/svg11.dtd">
<!-- Generated by graphviz version 5.0.0 (20220707.1540)
 -->
<!-- Title: dependencies Pages: 1 -->
<svg width="958pt" height="174pt"
 viewBox="0.00 0.00 958.00 173.80" xmlns="http://www.w3.org/2000/svg" xmlns:xlink="http://www.w3.org/1999/xlink">
<g id="graph0" class="graph" transform="scale(1 1) rotate(0) translate(4 169.8)">
<title>dependencies</title>
<polygon fill="white" stroke="transparent" points="-4,4 -4,-169.8 954,-169.8 954,4 -4,4"/>
<text text-anchor="middle" x="475" y="-8.2" font-family="sans-serif" font-size="14.00">dependencies</text>
<g id="clust1" class="cluster">
<title>cluster_SharedModule</title>
<polygon fill="none" stroke="black" stroke-dasharray="1,5" points="8,-32.8 8,-157.8 942,-157.8 942,-32.8 8,-32.8"/>
</g>
<g id="clust8" class="cluster">
<title>cluster_SharedModule_imports</title>
<polygon fill="none" stroke="black" points="774,-40.8 774,-92.8 934,-92.8 934,-40.8 774,-40.8"/>
</g>
<g id="clust2" class="cluster">
<title>cluster_SharedModule_declarations</title>
<polygon fill="none" stroke="black" points="16,-40.8 16,-92.8 766,-92.8 766,-40.8 16,-40.8"/>
</g>
<!-- LoginComponent -->
<g id="node1" class="node">
<title>LoginComponent</title>
<polygon fill="#ffffb3" stroke="black" points="758.27,-84.8 643.73,-84.8 643.73,-48.8 758.27,-48.8 758.27,-84.8"/>
<text text-anchor="middle" x="701" y="-62.6" font-family="Times,serif" font-size="14.00">LoginComponent</text>
</g>
<!-- SharedModule -->
<g id="node6" class="node">
<title>SharedModule</title>
<polygon fill="#8dd3c7" stroke="black" points="517.43,-149.8 514.43,-153.8 493.43,-153.8 490.43,-149.8 418.57,-149.8 418.57,-113.8 517.43,-113.8 517.43,-149.8"/>
<text text-anchor="middle" x="468" y="-127.6" font-family="Times,serif" font-size="14.00">SharedModule</text>
</g>
<!-- LoginComponent&#45;&gt;SharedModule -->
<g id="edge1" class="edge">
<title>LoginComponent&#45;&gt;SharedModule</title>
<path fill="none" stroke="black" d="M701,-84.82C701,-102.17 701,-125.8 701,-125.8 701,-125.8 527.41,-125.8 527.41,-125.8"/>
<polygon fill="black" stroke="black" points="527.41,-122.3 517.41,-125.8 527.41,-129.3 527.41,-122.3"/>
</g>
<!-- MainFooterComponent -->
<g id="node2" class="node">
<title>MainFooterComponent</title>
<polygon fill="#ffffb3" stroke="black" points="625.94,-84.8 478.06,-84.8 478.06,-48.8 625.94,-48.8 625.94,-84.8"/>
<text text-anchor="middle" x="552" y="-62.6" font-family="Times,serif" font-size="14.00">MainFooterComponent</text>
</g>
<!-- MainFooterComponent&#45;&gt;SharedModule -->
<g id="edge2" class="edge">
<title>MainFooterComponent&#45;&gt;SharedModule</title>
<path fill="none" stroke="black" d="M497.75,-84.91C497.75,-84.91 497.75,-103.79 497.75,-103.79"/>
<polygon fill="black" stroke="black" points="494.25,-103.79 497.75,-113.79 501.25,-103.79 494.25,-103.79"/>
</g>
<!-- MainNavbarComponent -->
<g id="node3" class="node">
<title>MainNavbarComponent</title>
<polygon fill="#ffffb3" stroke="black" points="460.08,-84.8 307.92,-84.8 307.92,-48.8 460.08,-48.8 460.08,-84.8"/>
<text text-anchor="middle" x="384" y="-62.6" font-family="Times,serif" font-size="14.00">MainNavbarComponent</text>
</g>
<!-- MainNavbarComponent&#45;&gt;SharedModule -->
<g id="edge3" class="edge">
<title>MainNavbarComponent&#45;&gt;SharedModule</title>
<path fill="none" stroke="black" d="M439.41,-84.91C439.41,-84.91 439.41,-103.79 439.41,-103.79"/>
<polygon fill="black" stroke="black" points="435.91,-103.79 439.41,-113.79 442.91,-103.79 435.91,-103.79"/>
</g>
<!-- RegisterComponent -->
<g id="node4" class="node">
<title>RegisterComponent</title>
<polygon fill="#ffffb3" stroke="black" points="289.99,-84.8 162.01,-84.8 162.01,-48.8 289.99,-48.8 289.99,-84.8"/>
<text text-anchor="middle" x="226" y="-62.6" font-family="Times,serif" font-size="14.00">RegisterComponent</text>
</g>
<!-- RegisterComponent&#45;&gt;SharedModule -->
<g id="edge4" class="edge">
<title>RegisterComponent&#45;&gt;SharedModule</title>
<path fill="none" stroke="black" d="M226,-84.82C226,-102.17 226,-125.8 226,-125.8 226,-125.8 408.74,-125.8 408.74,-125.8"/>
<polygon fill="black" stroke="black" points="408.74,-129.3 418.74,-125.8 408.74,-122.3 408.74,-129.3"/>
</g>
<!-- SharedComponent -->
<g id="node5" class="node">
<title>SharedComponent</title>
<polygon fill="#ffffb3" stroke="black" points="144.21,-84.8 23.79,-84.8 23.79,-48.8 144.21,-48.8 144.21,-84.8"/>
<text text-anchor="middle" x="84" y="-62.6" font-family="Times,serif" font-size="14.00">SharedComponent</text>
</g>
<!-- SharedComponent&#45;&gt;SharedModule -->
<g id="edge5" class="edge">
<title>SharedComponent&#45;&gt;SharedModule</title>
<path fill="none" stroke="black" d="M84,-85.08C84,-106.12 84,-137.8 84,-137.8 84,-137.8 408.58,-137.8 408.58,-137.8"/>
<polygon fill="black" stroke="black" points="408.58,-141.3 418.58,-137.8 408.58,-134.3 408.58,-141.3"/>
</g>
<!-- SharedRoutingModule -->
<g id="node7" class="node">
<title>SharedRoutingModule</title>
<polygon fill="#8dd3c7" stroke="black" points="925.55,-84.8 922.55,-88.8 901.55,-88.8 898.55,-84.8 782.45,-84.8 782.45,-48.8 925.55,-48.8 925.55,-84.8"/>
<text text-anchor="middle" x="854" y="-62.6" font-family="Times,serif" font-size="14.00">SharedRoutingModule</text>
</g>
<!-- SharedRoutingModule&#45;&gt;SharedModule -->
<g id="edge6" class="edge">
<title>SharedRoutingModule&#45;&gt;SharedModule</title>
<path fill="none" stroke="black" d="M854,-85.08C854,-106.12 854,-137.8 854,-137.8 854,-137.8 527.28,-137.8 527.28,-137.8"/>
<polygon fill="black" stroke="black" points="527.28,-134.3 517.28,-137.8 527.28,-141.3 527.28,-134.3"/>
</g>
</g>
</svg>
