<?xml version="1.0" encoding="UTF-8" standalone="no"?>
<!DOCTYPE svg PUBLIC "-//W3C//DTD SVG 1.1//EN"
 "http://www.w3.org/Graphics/SVG/1.1/DTD/svg11.dtd">
<!-- Generated by graphviz version 5.0.0 (20220707.1540)
 -->
<!-- Title: dependencies Pages: 1 -->
<svg width="1358pt" height="174pt"
 viewBox="0.00 0.00 1358.00 173.80" xmlns="http://www.w3.org/2000/svg" xmlns:xlink="http://www.w3.org/1999/xlink">
<g id="graph0" class="graph" transform="scale(1 1) rotate(0) translate(4 169.8)">
<title>dependencies</title>
<polygon fill="white" stroke="transparent" points="-4,4 -4,-169.8 1354,-169.8 1354,4 -4,4"/>
<text text-anchor="middle" x="675" y="-8.2" font-family="sans-serif" font-size="14.00">dependencies</text>
<g id="clust1" class="cluster">
<title>cluster_UserModule</title>
<polygon fill="none" stroke="black" stroke-dasharray="1,5" points="8,-32.8 8,-157.8 1342,-157.8 1342,-32.8 8,-32.8"/>
</g>
<g id="clust2" class="cluster">
<title>cluster_UserModule_declarations</title>
<polygon fill="none" stroke="black" points="172,-40.8 172,-92.8 1334,-92.8 1334,-40.8 172,-40.8"/>
</g>
<g id="clust10" class="cluster">
<title>cluster_UserModule_imports</title>
<polygon fill="none" stroke="black" points="16,-40.8 16,-92.8 164,-92.8 164,-40.8 16,-40.8"/>
</g>
<!-- AllAuthorsComponent -->
<g id="node1" class="node">
<title>AllAuthorsComponent</title>
<polygon fill="#ffffb3" stroke="black" points="1326.33,-84.8 1181.67,-84.8 1181.67,-48.8 1326.33,-48.8 1326.33,-84.8"/>
<text text-anchor="middle" x="1254" y="-62.6" font-family="Times,serif" font-size="14.00">AllAuthorsComponent</text>
</g>
<!-- UserModule -->
<g id="node8" class="node">
<title>UserModule</title>
<polygon fill="#8dd3c7" stroke="black" points="668.99,-149.8 665.99,-153.8 644.99,-153.8 641.99,-149.8 583.01,-149.8 583.01,-113.8 668.99,-113.8 668.99,-149.8"/>
<text text-anchor="middle" x="626" y="-127.6" font-family="Times,serif" font-size="14.00">UserModule</text>
</g>
<!-- AllAuthorsComponent&#45;&gt;UserModule -->
<g id="edge1" class="edge">
<title>AllAuthorsComponent&#45;&gt;UserModule</title>
<path fill="none" stroke="black" d="M1254,-85.09C1254,-107.01 1254,-140.8 1254,-140.8 1254,-140.8 679.16,-140.8 679.16,-140.8"/>
<polygon fill="black" stroke="black" points="679.17,-137.3 669.16,-140.8 679.16,-144.3 679.17,-137.3"/>
</g>
<!-- AllBooksComponent -->
<g id="node2" class="node">
<title>AllBooksComponent</title>
<polygon fill="#ffffb3" stroke="black" points="1163.51,-84.8 1028.49,-84.8 1028.49,-48.8 1163.51,-48.8 1163.51,-84.8"/>
<text text-anchor="middle" x="1096" y="-62.6" font-family="Times,serif" font-size="14.00">AllBooksComponent</text>
</g>
<!-- AllBooksComponent&#45;&gt;UserModule -->
<g id="edge2" class="edge">
<title>AllBooksComponent&#45;&gt;UserModule</title>
<path fill="none" stroke="black" d="M1096,-84.91C1096,-104.14 1096,-131.8 1096,-131.8 1096,-131.8 679.37,-131.8 679.37,-131.8"/>
<polygon fill="black" stroke="black" points="679.37,-128.3 669.37,-131.8 679.37,-135.3 679.37,-128.3"/>
</g>
<!-- GetBooksByCategoryIdComponent -->
<g id="node3" class="node">
<title>GetBooksByCategoryIdComponent</title>
<polygon fill="#ffffb3" stroke="black" points="1010.15,-84.8 793.85,-84.8 793.85,-48.8 1010.15,-48.8 1010.15,-84.8"/>
<text text-anchor="middle" x="902" y="-62.6" font-family="Times,serif" font-size="14.00">GetBooksByCategoryIdComponent</text>
</g>
<!-- GetBooksByCategoryIdComponent&#45;&gt;UserModule -->
<g id="edge3" class="edge">
<title>GetBooksByCategoryIdComponent&#45;&gt;UserModule</title>
<path fill="none" stroke="black" d="M902,-84.83C902,-101.2 902,-122.8 902,-122.8 902,-122.8 679.12,-122.8 679.12,-122.8"/>
<polygon fill="black" stroke="black" points="679.13,-119.3 669.12,-122.8 679.12,-126.3 679.13,-119.3"/>
</g>
<!-- PhotoDialogComponent -->
<g id="node4" class="node">
<title>PhotoDialogComponent</title>
<polygon fill="#ffffb3" stroke="black" points="776.11,-84.8 623.89,-84.8 623.89,-48.8 776.11,-48.8 776.11,-84.8"/>
<text text-anchor="middle" x="700" y="-62.6" font-family="Times,serif" font-size="14.00">PhotoDialogComponent</text>
</g>
<!-- PhotoDialogComponent&#45;&gt;UserModule -->
<g id="edge4" class="edge">
<title>PhotoDialogComponent&#45;&gt;UserModule</title>
<path fill="none" stroke="black" d="M646.47,-84.91C646.47,-84.91 646.47,-103.79 646.47,-103.79"/>
<polygon fill="black" stroke="black" points="642.97,-103.79 646.47,-113.79 649.97,-103.79 642.97,-103.79"/>
</g>
<!-- UserComponent -->
<g id="node5" class="node">
<title>UserComponent</title>
<polygon fill="#ffffb3" stroke="black" points="605.77,-84.8 498.23,-84.8 498.23,-48.8 605.77,-48.8 605.77,-84.8"/>
<text text-anchor="middle" x="552" y="-62.6" font-family="Times,serif" font-size="14.00">UserComponent</text>
</g>
<!-- UserComponent&#45;&gt;UserModule -->
<g id="edge5" class="edge">
<title>UserComponent&#45;&gt;UserModule</title>
<path fill="none" stroke="black" d="M594.44,-84.91C594.44,-84.91 594.44,-103.79 594.44,-103.79"/>
<polygon fill="black" stroke="black" points="590.94,-103.79 594.44,-113.79 597.94,-103.79 590.94,-103.79"/>
</g>
<!-- UserFooterComponent -->
<g id="node6" class="node">
<title>UserFooterComponent</title>
<polygon fill="#ffffb3" stroke="black" points="480.32,-84.8 335.68,-84.8 335.68,-48.8 480.32,-48.8 480.32,-84.8"/>
<text text-anchor="middle" x="408" y="-62.6" font-family="Times,serif" font-size="14.00">UserFooterComponent</text>
</g>
<!-- UserFooterComponent&#45;&gt;UserModule -->
<g id="edge6" class="edge">
<title>UserFooterComponent&#45;&gt;UserModule</title>
<path fill="none" stroke="black" d="M408,-84.83C408,-101.2 408,-122.8 408,-122.8 408,-122.8 572.93,-122.8 572.93,-122.8"/>
<polygon fill="black" stroke="black" points="572.93,-126.3 582.93,-122.8 572.93,-119.3 572.93,-126.3"/>
</g>
<!-- UserViewComponent -->
<g id="node7" class="node">
<title>UserViewComponent</title>
<polygon fill="#ffffb3" stroke="black" points="318.09,-84.8 179.91,-84.8 179.91,-48.8 318.09,-48.8 318.09,-84.8"/>
<text text-anchor="middle" x="249" y="-62.6" font-family="Times,serif" font-size="14.00">UserViewComponent</text>
</g>
<!-- UserViewComponent&#45;&gt;UserModule -->
<g id="edge7" class="edge">
<title>UserViewComponent&#45;&gt;UserModule</title>
<path fill="none" stroke="black" d="M249,-84.91C249,-104.14 249,-131.8 249,-131.8 249,-131.8 572.75,-131.8 572.75,-131.8"/>
<polygon fill="black" stroke="black" points="572.75,-135.3 582.75,-131.8 572.75,-128.3 572.75,-135.3"/>
</g>
<!-- UserRoutingModule -->
<g id="node9" class="node">
<title>UserRoutingModule</title>
<polygon fill="#8dd3c7" stroke="black" points="155.6,-84.8 152.6,-88.8 131.6,-88.8 128.6,-84.8 24.4,-84.8 24.4,-48.8 155.6,-48.8 155.6,-84.8"/>
<text text-anchor="middle" x="90" y="-62.6" font-family="Times,serif" font-size="14.00">UserRoutingModule</text>
</g>
<!-- UserRoutingModule&#45;&gt;UserModule -->
<g id="edge8" class="edge">
<title>UserRoutingModule&#45;&gt;UserModule</title>
<path fill="none" stroke="black" d="M90,-85.09C90,-107.01 90,-140.8 90,-140.8 90,-140.8 572.59,-140.8 572.59,-140.8"/>
<polygon fill="black" stroke="black" points="572.59,-144.3 582.59,-140.8 572.59,-137.3 572.59,-144.3"/>
</g>
</g>
</svg>
