<?xml version="1.0" encoding="UTF-8" standalone="no"?>
<!DOCTYPE svg PUBLIC "-//W3C//DTD SVG 1.1//EN"
 "http://www.w3.org/Graphics/SVG/1.1/DTD/svg11.dtd">
<!-- Generated by graphviz version 5.0.0 (20220707.1540)
 -->
<!-- Title: dependencies Pages: 1 -->
<svg width="2146pt" height="174pt"
 viewBox="0.00 0.00 2146.00 173.80" xmlns="http://www.w3.org/2000/svg" xmlns:xlink="http://www.w3.org/1999/xlink">
<g id="graph0" class="graph" transform="scale(1 1) rotate(0) translate(4 169.8)">
<title>dependencies</title>
<polygon fill="white" stroke="transparent" points="-4,4 -4,-169.8 2142,-169.8 2142,4 -4,4"/>
<text text-anchor="middle" x="1069" y="-8.2" font-family="sans-serif" font-size="14.00">dependencies</text>
<g id="clust1" class="cluster">
<title>cluster_AdminModule</title>
<polygon fill="none" stroke="black" stroke-dasharray="1,5" points="8,-32.8 8,-157.8 2130,-157.8 2130,-32.8 8,-32.8"/>
</g>
<g id="clust2" class="cluster">
<title>cluster_AdminModule_declarations</title>
<polygon fill="none" stroke="black" points="184,-40.8 184,-92.8 2122,-92.8 2122,-40.8 184,-40.8"/>
</g>
<g id="clust15" class="cluster">
<title>cluster_AdminModule_imports</title>
<polygon fill="none" stroke="black" points="16,-40.8 16,-92.8 176,-92.8 176,-40.8 16,-40.8"/>
</g>
<!-- AddEditBookDialogComponent -->
<g id="node1" class="node">
<title>AddEditBookDialogComponent</title>
<polygon fill="#ffffb3" stroke="black" points="2113.71,-84.8 1916.29,-84.8 1916.29,-48.8 2113.71,-48.8 2113.71,-84.8"/>
<text text-anchor="middle" x="2015" y="-62.6" font-family="Times,serif" font-size="14.00">AddEditBookDialogComponent</text>
</g>
<!-- AdminModule -->
<g id="node13" class="node">
<title>AdminModule</title>
<polygon fill="#8dd3c7" stroke="black" points="1151.44,-149.8 1148.44,-153.8 1127.44,-153.8 1124.44,-149.8 1052.56,-149.8 1052.56,-113.8 1151.44,-113.8 1151.44,-149.8"/>
<text text-anchor="middle" x="1102" y="-127.6" font-family="Times,serif" font-size="14.00">AdminModule</text>
</g>
<!-- AddEditBookDialogComponent&#45;&gt;AdminModule -->
<g id="edge1" class="edge">
<title>AddEditBookDialogComponent&#45;&gt;AdminModule</title>
<path fill="none" stroke="black" d="M2015,-84.89C2015,-107.93 2015,-144.8 2015,-144.8 2015,-144.8 1161.41,-144.8 1161.41,-144.8"/>
<polygon fill="black" stroke="black" points="1161.41,-141.3 1151.41,-144.8 1161.41,-148.3 1161.41,-141.3"/>
</g>
<!-- AddEditCategoryDialogComponent -->
<g id="node2" class="node">
<title>AddEditCategoryDialogComponent</title>
<polygon fill="#ffffb3" stroke="black" points="1898.19,-84.8 1679.81,-84.8 1679.81,-48.8 1898.19,-48.8 1898.19,-84.8"/>
<text text-anchor="middle" x="1789" y="-62.6" font-family="Times,serif" font-size="14.00">AddEditCategoryDialogComponent</text>
</g>
<!-- AddEditCategoryDialogComponent&#45;&gt;AdminModule -->
<g id="edge2" class="edge">
<title>AddEditCategoryDialogComponent&#45;&gt;AdminModule</title>
<path fill="none" stroke="black" d="M1789,-84.84C1789,-106.46 1789,-139.8 1789,-139.8 1789,-139.8 1161.41,-139.8 1161.41,-139.8"/>
<polygon fill="black" stroke="black" points="1161.41,-136.3 1151.41,-139.8 1161.41,-143.3 1161.41,-136.3"/>
</g>
<!-- AdminComponent -->
<g id="node3" class="node">
<title>AdminComponent</title>
<polygon fill="#ffffb3" stroke="black" points="1662.22,-84.8 1541.78,-84.8 1541.78,-48.8 1662.22,-48.8 1662.22,-84.8"/>
<text text-anchor="middle" x="1602" y="-62.6" font-family="Times,serif" font-size="14.00">AdminComponent</text>
</g>
<!-- AdminComponent&#45;&gt;AdminModule -->
<g id="edge3" class="edge">
<title>AdminComponent&#45;&gt;AdminModule</title>
<path fill="none" stroke="black" d="M1602,-85.02C1602,-105.17 1602,-134.8 1602,-134.8 1602,-134.8 1161.31,-134.8 1161.31,-134.8"/>
<polygon fill="black" stroke="black" points="1161.31,-131.3 1151.31,-134.8 1161.31,-138.3 1161.31,-131.3"/>
</g>
<!-- AuthorsComponent -->
<g id="node4" class="node">
<title>AuthorsComponent</title>
<polygon fill="#ffffb3" stroke="black" points="1524.44,-84.8 1397.56,-84.8 1397.56,-48.8 1524.44,-48.8 1524.44,-84.8"/>
<text text-anchor="middle" x="1461" y="-62.6" font-family="Times,serif" font-size="14.00">AuthorsComponent</text>
</g>
<!-- AuthorsComponent&#45;&gt;AdminModule -->
<g id="edge4" class="edge">
<title>AuthorsComponent&#45;&gt;AdminModule</title>
<path fill="none" stroke="black" d="M1439.93,-84.83C1439.93,-101.86 1439.93,-124.8 1439.93,-124.8 1439.93,-124.8 1161.5,-124.8 1161.5,-124.8"/>
<polygon fill="black" stroke="black" points="1161.5,-121.3 1151.5,-124.8 1161.5,-128.3 1161.5,-121.3"/>
</g>
<!-- AuthorsComponent&#45;&gt;AdminModule -->
<g id="edge5" class="edge">
<title>AuthorsComponent&#45;&gt;AdminModule</title>
<path fill="none" stroke="black" d="M1482.07,-85.02C1482.07,-103.63 1482.07,-129.8 1482.07,-129.8 1482.07,-129.8 1161.3,-129.8 1161.3,-129.8"/>
<polygon fill="black" stroke="black" points="1161.3,-126.3 1151.3,-129.8 1161.3,-133.3 1161.3,-126.3"/>
</g>
<!-- BooksComponent -->
<g id="node5" class="node">
<title>BooksComponent</title>
<polygon fill="#ffffb3" stroke="black" points="1379.62,-84.8 1262.38,-84.8 1262.38,-48.8 1379.62,-48.8 1379.62,-84.8"/>
<text text-anchor="middle" x="1321" y="-62.6" font-family="Times,serif" font-size="14.00">BooksComponent</text>
</g>
<!-- BooksComponent&#45;&gt;AdminModule -->
<g id="edge6" class="edge">
<title>BooksComponent&#45;&gt;AdminModule</title>
<path fill="none" stroke="black" d="M1321,-85.04C1321,-100.37 1321,-119.8 1321,-119.8 1321,-119.8 1161.42,-119.8 1161.42,-119.8"/>
<polygon fill="black" stroke="black" points="1161.42,-116.3 1151.42,-119.8 1161.42,-123.3 1161.42,-116.3"/>
</g>
<!-- CarouselComponent -->
<g id="node6" class="node">
<title>CarouselComponent</title>
<polygon fill="#ffffb3" stroke="black" points="1244.6,-84.8 1113.4,-84.8 1113.4,-48.8 1244.6,-48.8 1244.6,-84.8"/>
<text text-anchor="middle" x="1179" y="-62.6" font-family="Times,serif" font-size="14.00">CarouselComponent</text>
</g>
<!-- CarouselComponent&#45;&gt;AdminModule -->
<g id="edge7" class="edge">
<title>CarouselComponent&#45;&gt;AdminModule</title>
<path fill="none" stroke="black" d="M1132.34,-84.91C1132.34,-84.91 1132.34,-103.79 1132.34,-103.79"/>
<polygon fill="black" stroke="black" points="1128.84,-103.79 1132.34,-113.79 1135.84,-103.79 1128.84,-103.79"/>
</g>
<!-- CategoriesComponent -->
<g id="node7" class="node">
<title>CategoriesComponent</title>
<polygon fill="#ffffb3" stroke="black" points="1095.7,-84.8 954.3,-84.8 954.3,-48.8 1095.7,-48.8 1095.7,-84.8"/>
<text text-anchor="middle" x="1025" y="-62.6" font-family="Times,serif" font-size="14.00">CategoriesComponent</text>
</g>
<!-- CategoriesComponent&#45;&gt;AdminModule -->
<g id="edge8" class="edge">
<title>CategoriesComponent&#45;&gt;AdminModule</title>
<path fill="none" stroke="black" d="M1074.19,-84.91C1074.19,-84.91 1074.19,-103.79 1074.19,-103.79"/>
<polygon fill="black" stroke="black" points="1070.69,-103.79 1074.19,-113.79 1077.69,-103.79 1070.69,-103.79"/>
</g>
<!-- ConfirmDialogComponent -->
<g id="node8" class="node">
<title>ConfirmDialogComponent</title>
<polygon fill="#ffffb3" stroke="black" points="936.38,-84.8 769.62,-84.8 769.62,-48.8 936.38,-48.8 936.38,-84.8"/>
<text text-anchor="middle" x="853" y="-62.6" font-family="Times,serif" font-size="14.00">ConfirmDialogComponent</text>
</g>
<!-- ConfirmDialogComponent&#45;&gt;AdminModule -->
<g id="edge9" class="edge">
<title>ConfirmDialogComponent&#45;&gt;AdminModule</title>
<path fill="none" stroke="black" d="M853,-85.04C853,-100.37 853,-119.8 853,-119.8 853,-119.8 1042.51,-119.8 1042.51,-119.8"/>
<polygon fill="black" stroke="black" points="1042.51,-123.3 1052.51,-119.8 1042.51,-116.3 1042.51,-123.3"/>
</g>
<!-- DialogBodyComponent -->
<g id="node9" class="node">
<title>DialogBodyComponent</title>
<polygon fill="#ffffb3" stroke="black" points="751.77,-84.8 602.23,-84.8 602.23,-48.8 751.77,-48.8 751.77,-84.8"/>
<text text-anchor="middle" x="677" y="-62.6" font-family="Times,serif" font-size="14.00">DialogBodyComponent</text>
</g>
<!-- DialogBodyComponent&#45;&gt;AdminModule -->
<g id="edge10" class="edge">
<title>DialogBodyComponent&#45;&gt;AdminModule</title>
<path fill="none" stroke="black" d="M677,-84.83C677,-101.86 677,-124.8 677,-124.8 677,-124.8 1042.42,-124.8 1042.42,-124.8"/>
<polygon fill="black" stroke="black" points="1042.42,-128.3 1052.42,-124.8 1042.42,-121.3 1042.42,-128.3"/>
</g>
<!-- FooterComponent -->
<g id="node10" class="node">
<title>FooterComponent</title>
<polygon fill="#ffffb3" stroke="black" points="583.88,-84.8 466.12,-84.8 466.12,-48.8 583.88,-48.8 583.88,-84.8"/>
<text text-anchor="middle" x="525" y="-62.6" font-family="Times,serif" font-size="14.00">FooterComponent</text>
</g>
<!-- FooterComponent&#45;&gt;AdminModule -->
<g id="edge11" class="edge">
<title>FooterComponent&#45;&gt;AdminModule</title>
<path fill="none" stroke="black" d="M525,-85.02C525,-103.63 525,-129.8 525,-129.8 525,-129.8 1042.56,-129.8 1042.56,-129.8"/>
<polygon fill="black" stroke="black" points="1042.56,-133.3 1052.56,-129.8 1042.56,-126.3 1042.56,-133.3"/>
</g>
<!-- HomeComponent -->
<g id="node11" class="node">
<title>HomeComponent</title>
<polygon fill="#ffffb3" stroke="black" points="447.55,-84.8 332.45,-84.8 332.45,-48.8 447.55,-48.8 447.55,-84.8"/>
<text text-anchor="middle" x="390" y="-62.6" font-family="Times,serif" font-size="14.00">HomeComponent</text>
</g>
<!-- HomeComponent&#45;&gt;AdminModule -->
<g id="edge12" class="edge">
<title>HomeComponent&#45;&gt;AdminModule</title>
<path fill="none" stroke="black" d="M390,-85.02C390,-105.17 390,-134.8 390,-134.8 390,-134.8 1042.5,-134.8 1042.5,-134.8"/>
<polygon fill="black" stroke="black" points="1042.5,-138.3 1052.5,-134.8 1042.5,-131.3 1042.5,-138.3"/>
</g>
<!-- NavbarComponent -->
<g id="node12" class="node">
<title>NavbarComponent</title>
<polygon fill="#ffffb3" stroke="black" points="314.03,-84.8 191.97,-84.8 191.97,-48.8 314.03,-48.8 314.03,-84.8"/>
<text text-anchor="middle" x="253" y="-62.6" font-family="Times,serif" font-size="14.00">NavbarComponent</text>
</g>
<!-- NavbarComponent&#45;&gt;AdminModule -->
<g id="edge13" class="edge">
<title>NavbarComponent&#45;&gt;AdminModule</title>
<path fill="none" stroke="black" d="M253,-84.84C253,-106.46 253,-139.8 253,-139.8 253,-139.8 1042.68,-139.8 1042.68,-139.8"/>
<polygon fill="black" stroke="black" points="1042.68,-143.3 1052.68,-139.8 1042.68,-136.3 1042.68,-143.3"/>
</g>
<!-- AdminRoutingModule -->
<g id="node14" class="node">
<title>AdminRoutingModule</title>
<polygon fill="#8dd3c7" stroke="black" points="167.56,-84.8 164.56,-88.8 143.56,-88.8 140.56,-84.8 24.44,-84.8 24.44,-48.8 167.56,-48.8 167.56,-84.8"/>
<text text-anchor="middle" x="96" y="-62.6" font-family="Times,serif" font-size="14.00">AdminRoutingModule</text>
</g>
<!-- AdminRoutingModule&#45;&gt;AdminModule -->
<g id="edge14" class="edge">
<title>AdminRoutingModule&#45;&gt;AdminModule</title>
<path fill="none" stroke="black" d="M96,-84.89C96,-107.93 96,-144.8 96,-144.8 96,-144.8 1042.46,-144.8 1042.46,-144.8"/>
<polygon fill="black" stroke="black" points="1042.46,-148.3 1052.46,-144.8 1042.46,-141.3 1042.46,-148.3"/>
</g>
</g>
</svg>
