<svg class="svg-icon" style="width: 1em; height: 1em;vertical-align: middle;fill: currentColor;overflow: hidden;" viewBox="0 0 1024 1024" version="1.1" xmlns="http://www.w3.org/2000/svg"><path d="M328.817778 964.835556H69.404444v-876.088889h258.275556v876.088889z m-248.035556-10.24h236.657778V98.986667H80.782222v855.608889z"  /><path d="M199.111111 271.928889c-26.168889 0-46.648889-20.48-46.648889-46.648889s20.48-46.648889 46.648889-46.648889 46.648889 20.48 46.648889 46.648889-20.48 46.648889-46.648889 46.648889z m0-81.92c-19.342222 0-36.408889 15.928889-36.408889 36.408889 0 19.342222 15.928889 36.408889 36.408889 36.408889 19.342222 0 36.408889-15.928889 36.408889-36.408889 0-20.48-17.066667-36.408889-36.408889-36.408889zM75.093333 657.635556h248.035556v10.24H75.093333zM75.093333 697.457778h248.035556v10.24H75.093333zM606.435556 964.835556H348.16v-876.088889h258.275556v876.088889z m-248.035556-10.24h236.657778V98.986667H358.4v855.608889z"  /><path d="M477.866667 271.928889c-26.168889 0-46.648889-20.48-46.648889-46.648889s20.48-46.648889 46.648889-46.648889 46.648889 20.48 46.648889 46.648889-21.617778 46.648889-46.648889 46.648889z m0-81.92c-19.342222 0-36.408889 15.928889-36.408889 36.408889 0 19.342222 15.928889 36.408889 36.408889 36.408889 19.342222 0 36.408889-15.928889 36.408889-36.408889-1.137778-20.48-17.066667-36.408889-36.408889-36.408889zM353.848889 657.635556h248.035555v10.24H353.848889zM353.848889 697.457778h248.035555v10.24H353.848889zM719.075556 978.488889L604.16 109.226667l256-34.133334L976.213333 944.355556l-257.137777 34.133333z m-103.537778-860.16L728.177778 965.973333l234.382222-30.72-111.502222-847.644444-235.52 30.72z"  /><path d="M749.795556 274.204444c-10.24 0-20.48-3.413333-28.444445-9.102222-10.24-7.964444-15.928889-18.204444-18.204444-30.72-1.137778-12.515556 1.137778-25.031111 9.102222-34.133333 7.964444-10.24 18.204444-15.928889 30.72-18.204445 25.031111-3.413333 48.924444 14.791111 52.337778 39.822223 3.413333 25.031111-14.791111 48.924444-39.822223 52.337777h-5.688888z m0-81.92h-4.551112c-9.102222 1.137778-18.204444 5.688889-23.893333 13.653334s-7.964444 17.066667-6.826667 26.168889c1.137778 9.102222 5.688889 18.204444 13.653334 23.893333s17.066667 7.964444 26.168889 6.826667c19.342222-2.275556 32.995556-20.48 30.72-39.822223-2.275556-18.204444-17.066667-30.72-35.271111-30.72zM930.053689 640.318578l1.353955 10.148978-245.873777 32.688355-1.365334-10.148978zM934.661689 680.0384l1.342578 10.148978-245.873778 32.688355-1.353956-10.148977z"  /></svg>