<?xml version="1.0" encoding="UTF-8" standalone="no"?>
<!DOCTYPE svg PUBLIC "-//W3C//DTD SVG 1.1//EN"
 "http://www.w3.org/Graphics/SVG/1.1/DTD/svg11.dtd">
<!-- Generated by graphviz version 5.0.0 (20220707.1540)
 -->
<!-- Title: dependencies Pages: 1 -->
<svg width="4430pt" height="323pt"
 viewBox="0.00 0.00 4430.00 322.80" xmlns="http://www.w3.org/2000/svg" xmlns:xlink="http://www.w3.org/1999/xlink">
<g id="graph0" class="graph" transform="scale(1 1) rotate(0) translate(4 318.8)">
<title>dependencies</title>
<polygon fill="white" stroke="transparent" points="-4,4 -4,-318.8 4426,-318.8 4426,4 -4,4"/>
<text text-anchor="middle" x="2211" y="-8.2" font-family="sans-serif" font-size="14.00">dependencies</text>
<g id="clust1" class="cluster">
<title>cluster_AdminModule</title>
<polygon fill="none" stroke="black" stroke-dasharray="1,5" points="8,-32.8 8,-168.8 2130,-168.8 2130,-32.8 8,-32.8"/>
</g>
<g id="clust2" class="cluster">
<title>cluster_AdminModule_declarations</title>
<polygon fill="none" stroke="black" points="184,-40.8 184,-92.8 2122,-92.8 2122,-40.8 184,-40.8"/>
</g>
<g id="clust15" class="cluster">
<title>cluster_AdminModule_imports</title>
<polygon fill="none" stroke="black" points="16,-40.8 16,-92.8 176,-92.8 176,-40.8 16,-40.8"/>
</g>
<g id="clust25" class="cluster">
<title>cluster_AppModule</title>
<polygon fill="none" stroke="black" stroke-dasharray="1,5" points="2459,-108.8 2459,-306.8 3022,-306.8 3022,-108.8 2459,-108.8"/>
</g>
<g id="clust26" class="cluster">
<title>cluster_AppModule_declarations</title>
<polygon fill="none" stroke="black" points="2736,-116.8 2736,-168.8 3014,-168.8 3014,-116.8 2736,-116.8"/>
</g>
<g id="clust29" class="cluster">
<title>cluster_AppModule_imports</title>
<polygon fill="none" stroke="black" points="2467,-116.8 2467,-168.8 2728,-168.8 2728,-116.8 2467,-116.8"/>
</g>
<g id="clust31" class="cluster">
<title>cluster_AppModule_bootstrap</title>
<polygon fill="none" stroke="black" points="2594,-246.8 2594,-298.8 2718,-298.8 2718,-246.8 2594,-246.8"/>
</g>
<g id="clust39" class="cluster">
<title>cluster_SharedModule</title>
<polygon fill="none" stroke="black" stroke-dasharray="1,5" points="2138,-32.8 2138,-100.8 3072,-100.8 3072,-32.8 2138,-32.8"/>
</g>
<g id="clust40" class="cluster">
<title>cluster_SharedModule_declarations</title>
<polygon fill="none" stroke="black" points="2314,-40.8 2314,-92.8 3064,-92.8 3064,-40.8 2314,-40.8"/>
</g>
<g id="clust46" class="cluster">
<title>cluster_SharedModule_imports</title>
<polygon fill="none" stroke="black" points="2146,-40.8 2146,-92.8 2306,-92.8 2306,-40.8 2146,-40.8"/>
</g>
<g id="clust56" class="cluster">
<title>cluster_UserModule</title>
<polygon fill="none" stroke="black" stroke-dasharray="1,5" points="3080,-32.8 3080,-168.8 4414,-168.8 4414,-32.8 3080,-32.8"/>
</g>
<g id="clust57" class="cluster">
<title>cluster_UserModule_declarations</title>
<polygon fill="none" stroke="black" points="3244,-40.8 3244,-92.8 4406,-92.8 4406,-40.8 3244,-40.8"/>
</g>
<g id="clust65" class="cluster">
<title>cluster_UserModule_imports</title>
<polygon fill="none" stroke="black" points="3088,-40.8 3088,-92.8 3236,-92.8 3236,-40.8 3088,-40.8"/>
</g>
<!-- AddEditBookDialogComponent -->
<g id="node1" class="node">
<title>AddEditBookDialogComponent</title>
<polygon fill="#ffffb3" stroke="black" points="2113.71,-84.8 1916.29,-84.8 1916.29,-48.8 2113.71,-48.8 2113.71,-84.8"/>
<text text-anchor="middle" x="2015" y="-62.6" font-family="Times,serif" font-size="14.00">AddEditBookDialogComponent</text>
</g>
<!-- AdminModule -->
<g id="node13" class="node">
<title>AdminModule</title>
<polygon fill="#8dd3c7" stroke="black" points="1228.44,-160.8 1225.44,-164.8 1204.44,-164.8 1201.44,-160.8 1129.56,-160.8 1129.56,-124.8 1228.44,-124.8 1228.44,-160.8"/>
<text text-anchor="middle" x="1179" y="-138.6" font-family="Times,serif" font-size="14.00">AdminModule</text>
</g>
<!-- AddEditBookDialogComponent&#45;&gt;AdminModule -->
<g id="edge1" class="edge">
<title>AddEditBookDialogComponent&#45;&gt;AdminModule</title>
<path fill="none" stroke="black" d="M2015,-85.01C2015,-111.31 2015,-156.8 2015,-156.8 2015,-156.8 1238.48,-156.8 1238.48,-156.8"/>
<polygon fill="black" stroke="black" points="1238.48,-153.3 1228.48,-156.8 1238.48,-160.3 1238.48,-153.3"/>
</g>
<!-- AddEditCategoryDialogComponent -->
<g id="node2" class="node">
<title>AddEditCategoryDialogComponent</title>
<polygon fill="#ffffb3" stroke="black" points="1898.19,-84.8 1679.81,-84.8 1679.81,-48.8 1898.19,-48.8 1898.19,-84.8"/>
<text text-anchor="middle" x="1789" y="-62.6" font-family="Times,serif" font-size="14.00">AddEditCategoryDialogComponent</text>
</g>
<!-- AddEditCategoryDialogComponent&#45;&gt;AdminModule -->
<g id="edge2" class="edge">
<title>AddEditCategoryDialogComponent&#45;&gt;AdminModule</title>
<path fill="none" stroke="black" d="M1789,-85.04C1789,-110.28 1789,-152.8 1789,-152.8 1789,-152.8 1238.4,-152.8 1238.4,-152.8"/>
<polygon fill="black" stroke="black" points="1238.4,-149.3 1228.4,-152.8 1238.4,-156.3 1238.4,-149.3"/>
</g>
<!-- AdminComponent -->
<g id="node3" class="node">
<title>AdminComponent</title>
<polygon fill="#ffffb3" stroke="black" points="1662.22,-84.8 1541.78,-84.8 1541.78,-48.8 1662.22,-48.8 1662.22,-84.8"/>
<text text-anchor="middle" x="1602" y="-62.6" font-family="Times,serif" font-size="14.00">AdminComponent</text>
</g>
<!-- AdminComponent&#45;&gt;AdminModule -->
<g id="edge3" class="edge">
<title>AdminComponent&#45;&gt;AdminModule</title>
<path fill="none" stroke="black" d="M1602,-85C1602,-109.16 1602,-148.8 1602,-148.8 1602,-148.8 1238.35,-148.8 1238.35,-148.8"/>
<polygon fill="black" stroke="black" points="1238.35,-145.3 1228.35,-148.8 1238.35,-152.3 1238.35,-145.3"/>
</g>
<!-- AuthorsComponent -->
<g id="node4" class="node">
<title>AuthorsComponent</title>
<polygon fill="#ffffb3" stroke="black" points="1524.44,-84.8 1397.56,-84.8 1397.56,-48.8 1524.44,-48.8 1524.44,-84.8"/>
<text text-anchor="middle" x="1461" y="-62.6" font-family="Times,serif" font-size="14.00">AuthorsComponent</text>
</g>
<!-- AuthorsComponent&#45;&gt;AdminModule -->
<g id="edge4" class="edge">
<title>AuthorsComponent&#45;&gt;AdminModule</title>
<path fill="none" stroke="black" d="M1439.93,-85.09C1439.93,-107.01 1439.93,-140.8 1439.93,-140.8 1439.93,-140.8 1238.39,-140.8 1238.39,-140.8"/>
<polygon fill="black" stroke="black" points="1238.39,-137.3 1228.39,-140.8 1238.38,-144.3 1238.39,-137.3"/>
</g>
<!-- AuthorsComponent&#45;&gt;AdminModule -->
<g id="edge5" class="edge">
<title>AuthorsComponent&#45;&gt;AdminModule</title>
<path fill="none" stroke="black" d="M1482.07,-84.89C1482.07,-107.93 1482.07,-144.8 1482.07,-144.8 1482.07,-144.8 1238.37,-144.8 1238.37,-144.8"/>
<polygon fill="black" stroke="black" points="1238.37,-141.3 1228.37,-144.8 1238.37,-148.3 1238.37,-141.3"/>
</g>
<!-- BooksComponent -->
<g id="node5" class="node">
<title>BooksComponent</title>
<polygon fill="#ffffb3" stroke="black" points="1379.62,-84.8 1262.38,-84.8 1262.38,-48.8 1379.62,-48.8 1379.62,-84.8"/>
<text text-anchor="middle" x="1321" y="-62.6" font-family="Times,serif" font-size="14.00">BooksComponent</text>
</g>
<!-- BooksComponent&#45;&gt;AdminModule -->
<g id="edge6" class="edge">
<title>BooksComponent&#45;&gt;AdminModule</title>
<path fill="none" stroke="black" d="M1321,-84.83C1321,-105.57 1321,-136.8 1321,-136.8 1321,-136.8 1238.27,-136.8 1238.27,-136.8"/>
<polygon fill="black" stroke="black" points="1238.27,-133.3 1228.27,-136.8 1238.27,-140.3 1238.27,-133.3"/>
</g>
<!-- CarouselComponent -->
<g id="node6" class="node">
<title>CarouselComponent</title>
<polygon fill="#ffffb3" stroke="black" points="1244.6,-84.8 1113.4,-84.8 1113.4,-48.8 1244.6,-48.8 1244.6,-84.8"/>
<text text-anchor="middle" x="1179" y="-62.6" font-family="Times,serif" font-size="14.00">CarouselComponent</text>
</g>
<!-- CarouselComponent&#45;&gt;AdminModule -->
<g id="edge7" class="edge">
<title>CarouselComponent&#45;&gt;AdminModule</title>
<path fill="none" stroke="black" d="M1179,-84.81C1179,-84.81 1179,-114.65 1179,-114.65"/>
<polygon fill="black" stroke="black" points="1175.5,-114.65 1179,-124.65 1182.5,-114.65 1175.5,-114.65"/>
</g>
<!-- CategoriesComponent -->
<g id="node7" class="node">
<title>CategoriesComponent</title>
<polygon fill="#ffffb3" stroke="black" points="1095.7,-84.8 954.3,-84.8 954.3,-48.8 1095.7,-48.8 1095.7,-84.8"/>
<text text-anchor="middle" x="1025" y="-62.6" font-family="Times,serif" font-size="14.00">CategoriesComponent</text>
</g>
<!-- CategoriesComponent&#45;&gt;AdminModule -->
<g id="edge8" class="edge">
<title>CategoriesComponent&#45;&gt;AdminModule</title>
<path fill="none" stroke="black" d="M1025,-85.02C1025,-103.63 1025,-129.8 1025,-129.8 1025,-129.8 1119.43,-129.8 1119.43,-129.8"/>
<polygon fill="black" stroke="black" points="1119.43,-133.3 1129.43,-129.8 1119.43,-126.3 1119.43,-133.3"/>
</g>
<!-- ConfirmDialogComponent -->
<g id="node8" class="node">
<title>ConfirmDialogComponent</title>
<polygon fill="#ffffb3" stroke="black" points="936.38,-84.8 769.62,-84.8 769.62,-48.8 936.38,-48.8 936.38,-84.8"/>
<text text-anchor="middle" x="853" y="-62.6" font-family="Times,serif" font-size="14.00">ConfirmDialogComponent</text>
</g>
<!-- ConfirmDialogComponent&#45;&gt;AdminModule -->
<g id="edge9" class="edge">
<title>ConfirmDialogComponent&#45;&gt;AdminModule</title>
<path fill="none" stroke="black" d="M853,-85.11C853,-104.95 853,-133.8 853,-133.8 853,-133.8 1119.49,-133.8 1119.49,-133.8"/>
<polygon fill="black" stroke="black" points="1119.49,-137.3 1129.49,-133.8 1119.49,-130.3 1119.49,-137.3"/>
</g>
<!-- DialogBodyComponent -->
<g id="node9" class="node">
<title>DialogBodyComponent</title>
<polygon fill="#ffffb3" stroke="black" points="751.77,-84.8 602.23,-84.8 602.23,-48.8 751.77,-48.8 751.77,-84.8"/>
<text text-anchor="middle" x="677" y="-62.6" font-family="Times,serif" font-size="14.00">DialogBodyComponent</text>
</g>
<!-- DialogBodyComponent&#45;&gt;AdminModule -->
<g id="edge10" class="edge">
<title>DialogBodyComponent&#45;&gt;AdminModule</title>
<path fill="none" stroke="black" d="M677,-84.97C677,-106.3 677,-138.8 677,-138.8 677,-138.8 1119.49,-138.8 1119.49,-138.8"/>
<polygon fill="black" stroke="black" points="1119.49,-142.3 1129.49,-138.8 1119.49,-135.3 1119.49,-142.3"/>
</g>
<!-- FooterComponent -->
<g id="node10" class="node">
<title>FooterComponent</title>
<polygon fill="#ffffb3" stroke="black" points="583.88,-84.8 466.12,-84.8 466.12,-48.8 583.88,-48.8 583.88,-84.8"/>
<text text-anchor="middle" x="525" y="-62.6" font-family="Times,serif" font-size="14.00">FooterComponent</text>
</g>
<!-- FooterComponent&#45;&gt;AdminModule -->
<g id="edge11" class="edge">
<title>FooterComponent&#45;&gt;AdminModule</title>
<path fill="none" stroke="black" d="M525,-84.81C525,-107.29 525,-142.8 525,-142.8 525,-142.8 1119.58,-142.8 1119.58,-142.8"/>
<polygon fill="black" stroke="black" points="1119.58,-146.3 1129.58,-142.8 1119.58,-139.3 1119.58,-146.3"/>
</g>
<!-- HomeComponent -->
<g id="node11" class="node">
<title>HomeComponent</title>
<polygon fill="#ffffb3" stroke="black" points="447.55,-84.8 332.45,-84.8 332.45,-48.8 447.55,-48.8 447.55,-84.8"/>
<text text-anchor="middle" x="390" y="-62.6" font-family="Times,serif" font-size="14.00">HomeComponent</text>
</g>
<!-- HomeComponent&#45;&gt;AdminModule -->
<g id="edge12" class="edge">
<title>HomeComponent&#45;&gt;AdminModule</title>
<path fill="none" stroke="black" d="M390,-85.18C390,-109.08 390,-147.8 390,-147.8 390,-147.8 1119.64,-147.8 1119.64,-147.8"/>
<polygon fill="black" stroke="black" points="1119.64,-151.3 1129.64,-147.8 1119.64,-144.3 1119.64,-151.3"/>
</g>
<!-- NavbarComponent -->
<g id="node12" class="node">
<title>NavbarComponent</title>
<polygon fill="#ffffb3" stroke="black" points="314.03,-84.8 191.97,-84.8 191.97,-48.8 314.03,-48.8 314.03,-84.8"/>
<text text-anchor="middle" x="253" y="-62.6" font-family="Times,serif" font-size="14.00">NavbarComponent</text>
</g>
<!-- NavbarComponent&#45;&gt;AdminModule -->
<g id="edge13" class="edge">
<title>NavbarComponent&#45;&gt;AdminModule</title>
<path fill="none" stroke="black" d="M253,-84.83C253,-109.78 253,-151.8 253,-151.8 253,-151.8 1119.54,-151.8 1119.54,-151.8"/>
<polygon fill="black" stroke="black" points="1119.54,-155.3 1129.54,-151.8 1119.54,-148.3 1119.54,-155.3"/>
</g>
<!-- AppModule -->
<g id="node17" class="node">
<title>AppModule</title>
<polygon fill="#8dd3c7" stroke="black" points="2697.66,-225.8 2694.66,-229.8 2673.66,-229.8 2670.66,-225.8 2614.34,-225.8 2614.34,-189.8 2697.66,-189.8 2697.66,-225.8"/>
<text text-anchor="middle" x="2656" y="-203.6" font-family="Times,serif" font-size="14.00">AppModule</text>
</g>
<!-- AdminModule&#45;&gt;AppModule -->
<g id="edge17" class="edge">
<title>AdminModule&#45;&gt;AppModule</title>
<path fill="none" stroke="black" d="M1179,-161.08C1179,-182.12 1179,-213.8 1179,-213.8 1179,-213.8 2604.18,-213.8 2604.18,-213.8"/>
<polygon fill="black" stroke="black" points="2604.18,-217.3 2614.18,-213.8 2604.18,-210.3 2604.18,-217.3"/>
</g>
<!-- AdminRoutingModule -->
<g id="node14" class="node">
<title>AdminRoutingModule</title>
<polygon fill="#8dd3c7" stroke="black" points="167.56,-84.8 164.56,-88.8 143.56,-88.8 140.56,-84.8 24.44,-84.8 24.44,-48.8 167.56,-48.8 167.56,-84.8"/>
<text text-anchor="middle" x="96" y="-62.6" font-family="Times,serif" font-size="14.00">AdminRoutingModule</text>
</g>
<!-- AdminRoutingModule&#45;&gt;AdminModule -->
<g id="edge14" class="edge">
<title>AdminRoutingModule&#45;&gt;AdminModule</title>
<path fill="none" stroke="black" d="M96,-85.01C96,-111.31 96,-156.8 96,-156.8 96,-156.8 1119.65,-156.8 1119.65,-156.8"/>
<polygon fill="black" stroke="black" points="1119.65,-160.3 1129.65,-156.8 1119.65,-153.3 1119.65,-160.3"/>
</g>
<!-- AppComponent -->
<g id="node15" class="node">
<title>AppComponent</title>
<polygon fill="#ffffb3" stroke="black" points="3005.94,-160.8 2900.06,-160.8 2900.06,-124.8 3005.94,-124.8 3005.94,-160.8"/>
<text text-anchor="middle" x="2953" y="-138.6" font-family="Times,serif" font-size="14.00">AppComponent</text>
</g>
<!-- AppComponent&#45;&gt;AppModule -->
<g id="edge15" class="edge">
<title>AppComponent&#45;&gt;AppModule</title>
<path fill="none" stroke="black" d="M2953,-161.08C2953,-182.12 2953,-213.8 2953,-213.8 2953,-213.8 2707.92,-213.8 2707.92,-213.8"/>
<polygon fill="black" stroke="black" points="2707.92,-210.3 2697.92,-213.8 2707.92,-217.3 2707.92,-210.3"/>
</g>
<!-- NotFoundComponent -->
<g id="node16" class="node">
<title>NotFoundComponent</title>
<polygon fill="#ffffb3" stroke="black" points="2882.12,-160.8 2743.88,-160.8 2743.88,-124.8 2882.12,-124.8 2882.12,-160.8"/>
<text text-anchor="middle" x="2813" y="-138.6" font-family="Times,serif" font-size="14.00">NotFoundComponent</text>
</g>
<!-- NotFoundComponent&#45;&gt;AppModule -->
<g id="edge16" class="edge">
<title>NotFoundComponent&#45;&gt;AppModule</title>
<path fill="none" stroke="black" d="M2813,-160.82C2813,-178.17 2813,-201.8 2813,-201.8 2813,-201.8 2708.07,-201.8 2708.07,-201.8"/>
<polygon fill="black" stroke="black" points="2708.07,-198.3 2698.07,-201.8 2708.07,-205.3 2708.07,-198.3"/>
</g>
<!-- AppComponent  -->
<g id="node20" class="node">
<title>AppComponent </title>
<polygon fill="#80b1d3" stroke="black" points="2710.44,-290.8 2601.56,-290.8 2601.56,-254.8 2710.44,-254.8 2710.44,-290.8"/>
<text text-anchor="middle" x="2656" y="-268.6" font-family="Times,serif" font-size="14.00">AppComponent </text>
</g>
<!-- AppModule&#45;&gt;AppComponent  -->
<g id="edge20" class="edge">
<title>AppModule&#45;&gt;AppComponent </title>
<path fill="none" stroke="black" stroke-dasharray="1,5" d="M2656,-225.91C2656,-225.91 2656,-244.79 2656,-244.79"/>
<polygon fill="black" stroke="black" points="2652.5,-244.79 2656,-254.79 2659.5,-244.79 2652.5,-244.79"/>
</g>
<!-- AppRoutingModule -->
<g id="node18" class="node">
<title>AppRoutingModule</title>
<polygon fill="#8dd3c7" stroke="black" points="2720.28,-160.8 2717.28,-164.8 2696.28,-164.8 2693.28,-160.8 2591.72,-160.8 2591.72,-124.8 2720.28,-124.8 2720.28,-160.8"/>
<text text-anchor="middle" x="2656" y="-138.6" font-family="Times,serif" font-size="14.00">AppRoutingModule</text>
</g>
<!-- AppRoutingModule&#45;&gt;AppModule -->
<g id="edge18" class="edge">
<title>AppRoutingModule&#45;&gt;AppModule</title>
<path fill="none" stroke="black" d="M2656,-160.91C2656,-160.91 2656,-179.79 2656,-179.79"/>
<polygon fill="black" stroke="black" points="2652.5,-179.79 2656,-189.79 2659.5,-179.79 2652.5,-179.79"/>
</g>
<!-- SharedModule -->
<g id="node19" class="node">
<title>SharedModule</title>
<polygon fill="#8dd3c7" stroke="black" points="2573.43,-160.8 2570.43,-164.8 2549.43,-164.8 2546.43,-160.8 2474.57,-160.8 2474.57,-124.8 2573.43,-124.8 2573.43,-160.8"/>
<text text-anchor="middle" x="2524" y="-138.6" font-family="Times,serif" font-size="14.00">SharedModule</text>
</g>
<!-- SharedModule&#45;&gt;AppModule -->
<g id="edge19" class="edge">
<title>SharedModule&#45;&gt;AppModule</title>
<path fill="none" stroke="black" d="M2524,-160.82C2524,-178.17 2524,-201.8 2524,-201.8 2524,-201.8 2604.23,-201.8 2604.23,-201.8"/>
<polygon fill="black" stroke="black" points="2604.23,-205.3 2614.23,-201.8 2604.23,-198.3 2604.23,-205.3"/>
</g>
<!-- LoginComponent -->
<g id="node21" class="node">
<title>LoginComponent</title>
<polygon fill="#ffffb3" stroke="black" points="3056.27,-84.8 2941.73,-84.8 2941.73,-48.8 3056.27,-48.8 3056.27,-84.8"/>
<text text-anchor="middle" x="2999" y="-62.6" font-family="Times,serif" font-size="14.00">LoginComponent</text>
</g>
<!-- LoginComponent&#45;&gt;SharedModule -->
<g id="edge21" class="edge">
<title>LoginComponent&#45;&gt;SharedModule</title>
<path fill="none" stroke="black" d="M2973.67,-84.95C2973.67,-98.54 2973.67,-114.8 2973.67,-114.8 2973.67,-114.8 2553.53,-114.8 2553.53,-114.8 2553.53,-114.8 2553.53,-115.78 2553.53,-115.78"/>
<polygon fill="black" stroke="black" points="2550.03,-114.59 2553.53,-124.59 2557.03,-114.59 2550.03,-114.59"/>
</g>
<!-- MainFooterComponent -->
<g id="node22" class="node">
<title>MainFooterComponent</title>
<polygon fill="#ffffb3" stroke="black" points="2923.94,-84.8 2776.06,-84.8 2776.06,-48.8 2923.94,-48.8 2923.94,-84.8"/>
<text text-anchor="middle" x="2850" y="-62.6" font-family="Times,serif" font-size="14.00">MainFooterComponent</text>
</g>
<!-- MainFooterComponent&#45;&gt;SharedModule -->
<g id="edge22" class="edge">
<title>MainFooterComponent&#45;&gt;SharedModule</title>
<path fill="none" stroke="black" d="M2829.17,-84.91C2829.17,-94.7 2829.17,-104.8 2829.17,-104.8 2829.17,-104.8 2533.84,-104.8 2533.84,-104.8 2533.84,-104.8 2533.84,-114.69 2533.84,-114.69"/>
<polygon fill="black" stroke="black" points="2530.34,-114.69 2533.84,-124.69 2537.34,-114.69 2530.34,-114.69"/>
</g>
<!-- MainNavbarComponent -->
<g id="node23" class="node">
<title>MainNavbarComponent</title>
<polygon fill="#ffffb3" stroke="black" points="2758.08,-84.8 2605.92,-84.8 2605.92,-48.8 2758.08,-48.8 2758.08,-84.8"/>
<text text-anchor="middle" x="2682" y="-62.6" font-family="Times,serif" font-size="14.00">MainNavbarComponent</text>
</g>
<!-- MainNavbarComponent&#45;&gt;SharedModule -->
<g id="edge23" class="edge">
<title>MainNavbarComponent&#45;&gt;SharedModule</title>
<path fill="none" stroke="black" d="M2663.17,-85.01C2663.17,-90.35 2663.17,-94.8 2663.17,-94.8 2663.17,-94.8 2514.16,-94.8 2514.16,-94.8 2514.16,-94.8 2514.16,-114.65 2514.16,-114.65"/>
<polygon fill="black" stroke="black" points="2510.66,-114.65 2514.16,-124.65 2517.66,-114.65 2510.66,-114.65"/>
</g>
<!-- RegisterComponent -->
<g id="node24" class="node">
<title>RegisterComponent</title>
<polygon fill="#ffffb3" stroke="black" points="2587.99,-84.8 2460.01,-84.8 2460.01,-48.8 2587.99,-48.8 2587.99,-84.8"/>
<text text-anchor="middle" x="2524" y="-62.6" font-family="Times,serif" font-size="14.00">RegisterComponent</text>
</g>
<!-- RegisterComponent&#45;&gt;SharedModule -->
<g id="edge24" class="edge">
<title>RegisterComponent&#45;&gt;SharedModule</title>
<path fill="none" stroke="black" d="M2494.47,-84.81C2494.47,-84.81 2494.47,-114.65 2494.47,-114.65"/>
<polygon fill="black" stroke="black" points="2490.97,-114.65 2494.47,-124.65 2497.97,-114.65 2490.97,-114.65"/>
</g>
<!-- SharedComponent -->
<g id="node25" class="node">
<title>SharedComponent</title>
<polygon fill="#ffffb3" stroke="black" points="2442.21,-84.8 2321.79,-84.8 2321.79,-48.8 2442.21,-48.8 2442.21,-84.8"/>
<text text-anchor="middle" x="2382" y="-62.6" font-family="Times,serif" font-size="14.00">SharedComponent</text>
</g>
<!-- SharedComponent&#45;&gt;SharedModule -->
<g id="edge25" class="edge">
<title>SharedComponent&#45;&gt;SharedModule</title>
<path fill="none" stroke="black" d="M2382,-85.07C2382,-103.36 2382,-128.8 2382,-128.8 2382,-128.8 2464.73,-128.8 2464.73,-128.8"/>
<polygon fill="black" stroke="black" points="2464.73,-132.3 2474.73,-128.8 2464.73,-125.3 2464.73,-132.3"/>
</g>
<!-- SharedRoutingModule -->
<g id="node26" class="node">
<title>SharedRoutingModule</title>
<polygon fill="#8dd3c7" stroke="black" points="2297.55,-84.8 2294.55,-88.8 2273.55,-88.8 2270.55,-84.8 2154.45,-84.8 2154.45,-48.8 2297.55,-48.8 2297.55,-84.8"/>
<text text-anchor="middle" x="2226" y="-62.6" font-family="Times,serif" font-size="14.00">SharedRoutingModule</text>
</g>
<!-- SharedRoutingModule&#45;&gt;SharedModule -->
<g id="edge26" class="edge">
<title>SharedRoutingModule&#45;&gt;SharedModule</title>
<path fill="none" stroke="black" d="M2226,-84.83C2226,-104.38 2226,-132.8 2226,-132.8 2226,-132.8 2464.46,-132.8 2464.46,-132.8"/>
<polygon fill="black" stroke="black" points="2464.46,-136.3 2474.46,-132.8 2464.46,-129.3 2464.46,-136.3"/>
</g>
<!-- AllAuthorsComponent -->
<g id="node27" class="node">
<title>AllAuthorsComponent</title>
<polygon fill="#ffffb3" stroke="black" points="4398.33,-84.8 4253.67,-84.8 4253.67,-48.8 4398.33,-48.8 4398.33,-84.8"/>
<text text-anchor="middle" x="4326" y="-62.6" font-family="Times,serif" font-size="14.00">AllAuthorsComponent</text>
</g>
<!-- UserModule -->
<g id="node34" class="node">
<title>UserModule</title>
<polygon fill="#8dd3c7" stroke="black" points="3740.99,-160.8 3737.99,-164.8 3716.99,-164.8 3713.99,-160.8 3655.01,-160.8 3655.01,-124.8 3740.99,-124.8 3740.99,-160.8"/>
<text text-anchor="middle" x="3698" y="-138.6" font-family="Times,serif" font-size="14.00">UserModule</text>
</g>
<!-- AllAuthorsComponent&#45;&gt;UserModule -->
<g id="edge27" class="edge">
<title>AllAuthorsComponent&#45;&gt;UserModule</title>
<path fill="none" stroke="black" d="M4326,-84.83C4326,-109.78 4326,-151.8 4326,-151.8 4326,-151.8 3751.16,-151.8 3751.16,-151.8"/>
<polygon fill="black" stroke="black" points="3751.17,-148.3 3741.16,-151.8 3751.16,-155.3 3751.17,-148.3"/>
</g>
<!-- AllBooksComponent -->
<g id="node28" class="node">
<title>AllBooksComponent</title>
<polygon fill="#ffffb3" stroke="black" points="4235.51,-84.8 4100.49,-84.8 4100.49,-48.8 4235.51,-48.8 4235.51,-84.8"/>
<text text-anchor="middle" x="4168" y="-62.6" font-family="Times,serif" font-size="14.00">AllBooksComponent</text>
</g>
<!-- AllBooksComponent&#45;&gt;UserModule -->
<g id="edge28" class="edge">
<title>AllBooksComponent&#45;&gt;UserModule</title>
<path fill="none" stroke="black" d="M4168,-84.81C4168,-107.29 4168,-142.8 4168,-142.8 4168,-142.8 3751.37,-142.8 3751.37,-142.8"/>
<polygon fill="black" stroke="black" points="3751.37,-139.3 3741.37,-142.8 3751.37,-146.3 3751.37,-139.3"/>
</g>
<!-- GetBooksByCategoryIdComponent -->
<g id="node29" class="node">
<title>GetBooksByCategoryIdComponent</title>
<polygon fill="#ffffb3" stroke="black" points="4082.15,-84.8 3865.85,-84.8 3865.85,-48.8 4082.15,-48.8 4082.15,-84.8"/>
<text text-anchor="middle" x="3974" y="-62.6" font-family="Times,serif" font-size="14.00">GetBooksByCategoryIdComponent</text>
</g>
<!-- GetBooksByCategoryIdComponent&#45;&gt;UserModule -->
<g id="edge29" class="edge">
<title>GetBooksByCategoryIdComponent&#45;&gt;UserModule</title>
<path fill="none" stroke="black" d="M3974,-85.11C3974,-104.95 3974,-133.8 3974,-133.8 3974,-133.8 3751.12,-133.8 3751.12,-133.8"/>
<polygon fill="black" stroke="black" points="3751.13,-130.3 3741.12,-133.8 3751.12,-137.3 3751.13,-130.3"/>
</g>
<!-- PhotoDialogComponent -->
<g id="node30" class="node">
<title>PhotoDialogComponent</title>
<polygon fill="#ffffb3" stroke="black" points="3848.11,-84.8 3695.89,-84.8 3695.89,-48.8 3848.11,-48.8 3848.11,-84.8"/>
<text text-anchor="middle" x="3772" y="-62.6" font-family="Times,serif" font-size="14.00">PhotoDialogComponent</text>
</g>
<!-- PhotoDialogComponent&#45;&gt;UserModule -->
<g id="edge30" class="edge">
<title>PhotoDialogComponent&#45;&gt;UserModule</title>
<path fill="none" stroke="black" d="M3718.47,-84.81C3718.47,-84.81 3718.47,-114.65 3718.47,-114.65"/>
<polygon fill="black" stroke="black" points="3714.97,-114.65 3718.47,-124.65 3721.97,-114.65 3714.97,-114.65"/>
</g>
<!-- UserComponent -->
<g id="node31" class="node">
<title>UserComponent</title>
<polygon fill="#ffffb3" stroke="black" points="3677.77,-84.8 3570.23,-84.8 3570.23,-48.8 3677.77,-48.8 3677.77,-84.8"/>
<text text-anchor="middle" x="3624" y="-62.6" font-family="Times,serif" font-size="14.00">UserComponent</text>
</g>
<!-- UserComponent&#45;&gt;UserModule -->
<g id="edge31" class="edge">
<title>UserComponent&#45;&gt;UserModule</title>
<path fill="none" stroke="black" d="M3666.44,-84.81C3666.44,-84.81 3666.44,-114.65 3666.44,-114.65"/>
<polygon fill="black" stroke="black" points="3662.94,-114.65 3666.44,-124.65 3669.94,-114.65 3662.94,-114.65"/>
</g>
<!-- UserFooterComponent -->
<g id="node32" class="node">
<title>UserFooterComponent</title>
<polygon fill="#ffffb3" stroke="black" points="3552.32,-84.8 3407.68,-84.8 3407.68,-48.8 3552.32,-48.8 3552.32,-84.8"/>
<text text-anchor="middle" x="3480" y="-62.6" font-family="Times,serif" font-size="14.00">UserFooterComponent</text>
</g>
<!-- UserFooterComponent&#45;&gt;UserModule -->
<g id="edge32" class="edge">
<title>UserFooterComponent&#45;&gt;UserModule</title>
<path fill="none" stroke="black" d="M3480,-85.11C3480,-104.95 3480,-133.8 3480,-133.8 3480,-133.8 3644.93,-133.8 3644.93,-133.8"/>
<polygon fill="black" stroke="black" points="3644.93,-137.3 3654.93,-133.8 3644.93,-130.3 3644.93,-137.3"/>
</g>
<!-- UserViewComponent -->
<g id="node33" class="node">
<title>UserViewComponent</title>
<polygon fill="#ffffb3" stroke="black" points="3390.09,-84.8 3251.91,-84.8 3251.91,-48.8 3390.09,-48.8 3390.09,-84.8"/>
<text text-anchor="middle" x="3321" y="-62.6" font-family="Times,serif" font-size="14.00">UserViewComponent</text>
</g>
<!-- UserViewComponent&#45;&gt;UserModule -->
<g id="edge33" class="edge">
<title>UserViewComponent&#45;&gt;UserModule</title>
<path fill="none" stroke="black" d="M3321,-84.81C3321,-107.29 3321,-142.8 3321,-142.8 3321,-142.8 3644.75,-142.8 3644.75,-142.8"/>
<polygon fill="black" stroke="black" points="3644.75,-146.3 3654.75,-142.8 3644.75,-139.3 3644.75,-146.3"/>
</g>
<!-- UserRoutingModule -->
<g id="node35" class="node">
<title>UserRoutingModule</title>
<polygon fill="#8dd3c7" stroke="black" points="3227.6,-84.8 3224.6,-88.8 3203.6,-88.8 3200.6,-84.8 3096.4,-84.8 3096.4,-48.8 3227.6,-48.8 3227.6,-84.8"/>
<text text-anchor="middle" x="3162" y="-62.6" font-family="Times,serif" font-size="14.00">UserRoutingModule</text>
</g>
<!-- UserRoutingModule&#45;&gt;UserModule -->
<g id="edge34" class="edge">
<title>UserRoutingModule&#45;&gt;UserModule</title>
<path fill="none" stroke="black" d="M3162,-84.83C3162,-109.78 3162,-151.8 3162,-151.8 3162,-151.8 3644.59,-151.8 3644.59,-151.8"/>
<polygon fill="black" stroke="black" points="3644.59,-155.3 3654.59,-151.8 3644.59,-148.3 3644.59,-155.3"/>
</g>
</g>
</svg>
